<?xml version="1.0" encoding="iso-8859-1"?>
<!-- Generator: Adobe Illustrator 19.0.0, SVG Export Plug-In . SVG Version: 6.00 Build 0)  -->
<svg xmlns="http://www.w3.org/2000/svg" xmlns:xlink="http://www.w3.org/1999/xlink" version="1.1" id="Capa_1" x="0px" y="0px" viewBox="0 0 512 512" style="enable-background:new 0 0 512 512;" xml:space="preserve" width="512" height="512">
<g>
	<path style="fill:#DAD8DB;" d="M256,84c-4.422,0-8-3.582-8-8V52c0-4.418,3.578-8,8-8c4.422,0,8,3.582,8,8v24   C264,80.418,260.422,84,256,84z"/>
	<rect x="232" y="100" style="fill:#FFEAA8;" width="48" height="40"/>
	<polygon style="fill:#ECEAEC;" points="296,140 216,140 208,412 304,412  "/>
	<path style="fill:#DAD8DB;" d="M264.046,164h32.66L296,140h-80l-8,272h32.471l-0.425-223.954   C240.02,174.773,250.773,164,264.046,164z"/>
	<polygon style="fill:#FF8086;" points="208,412 304,412 300.706,300 211.294,300  "/>
	<polygon style="fill:#E5646E;" points="211.294,300 208,412 240.471,412 240.258,300  "/>
	<path style="fill:#F4DBB3;" d="M296.769,373.582c-10.594-6.054-23.372-6.941-34.701-2.409L183.333,404l263.45,55.304   L296.769,373.582z"/>
	<path style="fill:#EAC89F;" d="M181.497,386.241c-13.356-3.877-27.769-0.539-38.06,8.816l-69.222,62.929L408,452L181.497,386.241z"/>
	<path style="fill:#739AD6;" d="M454.344,468c-13.672,0-20.898-2.328-27.281-4.387c-6.023-1.938-11.219-3.613-22.375-3.613   c-11.141,0-16.336,1.676-22.352,3.613c-6.375,2.055-13.602,4.387-27.266,4.387c-13.656,0-20.875-2.332-27.242-4.387   c-6.016-1.938-11.203-3.613-22.336-3.613c-11.148,0-16.336,1.676-22.352,3.613c-6.367,2.055-13.594,4.387-27.25,4.387   c-13.656,0-20.883-2.332-27.25-4.387c-6.016-1.938-11.203-3.613-22.344-3.613c-11.141,0-16.328,1.676-22.344,3.613   c-6.367,2.055-13.594,4.387-27.25,4.387s-20.883-2.332-27.258-4.387c-6.008-1.938-11.195-3.613-22.328-3.613   s-16.328,1.676-22.336,3.613C78.414,465.668,71.195,468,57.547,468s-20.867-2.332-27.234-4.387C24.313,461.676,19.125,460,8,460   c-4.422,0-8-3.582-8-8s3.578-8,8-8c13.648,0,20.867,2.332,27.234,4.387c6,1.938,11.188,3.613,22.312,3.613   c11.133,0,16.32-1.676,22.32-3.613c6.375-2.055,13.594-4.387,27.25-4.387c13.648,0,20.875,2.332,27.242,4.387   c6.016,1.938,11.203,3.613,22.344,3.613s16.328-1.676,22.344-3.613c6.367-2.055,13.594-4.387,27.25-4.387   c13.656,0,20.883,2.332,27.25,4.387c6.016,1.938,11.203,3.613,22.344,3.613c11.141,0,16.328-1.676,22.344-3.613   c6.375-2.055,13.594-4.387,27.258-4.387c13.656,0,20.875,2.332,27.242,4.387c6.016,1.938,11.203,3.613,22.336,3.613   c11.148,0,16.344-1.676,22.359-3.613c6.375-2.059,13.602-4.387,27.258-4.387c13.672,0,20.898,2.328,27.281,4.387   c6.023,1.938,11.219,3.613,22.375,3.613s16.352-1.676,22.375-3.613C483.102,446.328,490.328,444,504,444c4.422,0,8,3.582,8,8   s-3.578,8-8,8c-11.156,0-16.352,1.676-22.375,3.613C475.242,465.672,468.016,468,454.344,468z"/>
	<path style="fill:#C8C5C9;" d="M256,68c-13.255,0-24,10.745-24,24v8h48v-8C280,78.745,269.255,68,256,68z"/>
	<path style="fill:#DAD8DB;" d="M280,108h-48c-4.422,0-8-3.582-8-8s3.578-8,8-8h48c4.422,0,8,3.582,8,8S284.422,108,280,108z"/>
	<path style="fill:#FFEAA8;" d="M184,124h-56c-4.422,0-8-3.582-8-8s3.578-8,8-8h56c4.422,0,8,3.582,8,8S188.422,124,184,124z"/>
	<path style="fill:#FFF5D7;" d="M176.008,89.34c-0.836,0-1.688-0.133-2.531-0.414l-16.008-5.336   c-4.188-1.398-6.453-5.93-5.055-10.121c1.398-4.188,5.883-6.465,10.117-5.059l16.008,5.336c4.188,1.398,6.453,5.93,5.055,10.121   C182.477,87.219,179.359,89.34,176.008,89.34z"/>
	<path style="fill:#FFF5D7;" d="M160,164.004c-3.352,0-6.469-2.121-7.586-5.473c-1.398-4.195,0.867-8.723,5.055-10.121l16-5.332   c4.219-1.402,8.719,0.871,10.117,5.063s-0.867,8.719-5.055,10.117l-16,5.332C161.688,163.871,160.836,164.004,160,164.004z"/>
	<path style="fill:#FFEAA8;" d="M384,124h-56c-4.422,0-8-3.582-8-8s3.578-8,8-8h56c4.422,0,8,3.582,8,8S388.422,124,384,124z"/>
	<path style="fill:#FFF5D7;" d="M335.992,89.34c-3.352,0-6.469-2.121-7.586-5.473c-1.398-4.191,0.867-8.723,5.055-10.121   l16.008-5.336c4.234-1.406,8.719,0.871,10.117,5.059c1.398,4.191-0.867,8.723-5.055,10.121l-16.008,5.336   C337.68,89.207,336.828,89.34,335.992,89.34z"/>
	<path style="fill:#FFF5D7;" d="M352,164.004c-0.836,0-1.688-0.133-2.531-0.414l-16-5.332c-4.188-1.398-6.453-5.926-5.055-10.117   s5.891-6.465,10.117-5.063l16,5.332c4.188,1.398,6.453,5.926,5.055,10.121C358.469,161.883,355.352,164.004,352,164.004z"/>
	<polygon style="fill:#FF8086;" points="298.353,220 296,140 216,140 213.647,220  "/>
	<path style="fill:#E5646E;" d="M240.106,220l-0.061-31.955c-0.025-13.272,10.728-24.045,24-24.045h32.661L296,140h-80l-2.353,80   H240.106z"/>
	<path style="fill:#ECEAEC;" d="M304,148h-96c-4.422,0-8-3.582-8-8s3.578-8,8-8h96c4.422,0,8,3.582,8,8S308.422,148,304,148z"/>
	<path style="fill:#DAD8DB;" d="M208,132h40v16h-40c-4.418,0-8-3.582-8-8v0C200,135.582,203.582,132,208,132z"/>
	<path style="fill:#B6B1B7;" d="M256,68L256,68l0,24h-24v0C232,78.745,242.745,68,256,68z"/>
	<rect x="248" y="108" style="fill:#FFFFFF;" width="16" height="24"/>
</g>















</svg>
