<?xml version="1.0" encoding="iso-8859-1"?>
<!-- Generator: Adobe Illustrator 19.0.0, SVG Export Plug-In . SVG Version: 6.00 Build 0)  -->
<svg version="1.1" id="Capa_1" xmlns="http://www.w3.org/2000/svg" xmlns:xlink="http://www.w3.org/1999/xlink" x="0px" y="0px"
	 viewBox="0 0 512 512" style="enable-background:new 0 0 512 512;" xml:space="preserve">
<polygon style="fill:#2EA2EF;" points="256,7.5 256,504.5 504.5,256 "/>
<polygon style="fill:#54BBFF;" points="256,7.5 7.5,256 256,504.5 462.073,256 "/>
<path d="M509.803,250.697l-248.5-248.5c-2.929-2.929-7.678-2.929-10.606,0L137.053,115.841c-2.929,2.929-2.929,7.677,0,10.606
	s7.678,2.929,10.606,0L256,18.107L493.894,256L256,493.894L18.107,256l108.34-108.34c2.929-2.929,2.929-7.678,0-10.606
	c-2.929-2.929-7.678-2.929-10.606,0L2.197,250.697c-2.929,2.929-2.929,7.678,0,10.606l248.5,248.5
	c1.464,1.464,3.384,2.197,5.303,2.197c1.919,0,3.839-0.732,5.303-2.197l248.5-248.5
	C512.733,258.375,512.733,253.626,509.803,250.697z"/>
<g>
</g>
<g>
</g>
<g>
</g>
<g>
</g>
<g>
</g>
<g>
</g>
<g>
</g>
<g>
</g>
<g>
</g>
<g>
</g>
<g>
</g>
<g>
</g>
<g>
</g>
<g>
</g>
<g>
</g>
</svg>
